<svg xmlns="http://www.w3.org/2000/svg" xmlns:xlink="http://www.w3.org/1999/xlink" width="211.098" height="50" viewBox="0 0 211.098 50">
  <defs>
    <clipPath id="clip-path">
      <rect id="Rectangle_2673" data-name="Rectangle 2673" width="102.191" height="50"/>
    </clipPath>
  </defs>
  <g id="Group_6480" data-name="Group 6480" transform="translate(-636 -875)">
    <g id="Group_6476" data-name="Group 6476" transform="translate(743 875)">
      <g id="Group_3385" data-name="Group 3385" transform="translate(0 0)">
        <path id="Path_7808" data-name="Path 7808" d="M205.025,142.133v-.589a9.423,9.423,0,0,0-.589-2.786,40.007,40.007,0,0,0-2.679-4.769c-1.728-3-3.673-6.462-5.412-9.483-1.432-2.488-2.767-5.684-6.322-5.733-3.7-.051-4.927,3.213-6.269,5.572-4.26,7.488-12.967,22.557-12.967,22.557h4.018s8.307-14.7,12.431-22.128c.527-.95,1.572-2.2,2.786-2.2,1.841,0,2.762,2.192,3.59,3.7,2.215,4.033,4.351,7.892,6.429,11.787.654,1.225,1.98,2.838,1.072,4.5-.593,1.085-1.787,1.019-3.483,1.019,0,.028-16.4,0-16.4,0V146.9h14.9a35.118,35.118,0,0,0,4.929-.161C203.413,146.3,204.691,144.475,205.025,142.133Z" transform="translate(-100.927 -118.772)"/>
        <g id="Group_3285" data-name="Group 3285" transform="translate(0)">
          <g id="Group_3282" data-name="Group 3282">
            <path id="Path_7809" data-name="Path 7809" d="M77.675,118.772v.7a1.4,1.4,0,0,1-.278.815L59.532,145.231H77.517v1.691H56.826v-.736a1.224,1.224,0,0,1,.239-.716L74.97,120.463H57.343v-1.691Z" transform="translate(-56.826 -118.772)"/>
          </g>
          <g id="Group_3283" data-name="Group 3283" transform="translate(27.732)">
            <path id="Path_7810" data-name="Path 7810" d="M104.114,146.922h-2.049v-28.15h2.049Z" transform="translate(-102.065 -118.772)"/>
          </g>
          <g id="Group_3284" data-name="Group 3284" transform="translate(38.82)">
            <path id="Path_7811" data-name="Path 7811" d="M134.2,139.919c.08-.212.162-.421.249-.627a5.212,5.212,0,0,1,.289-.587L145.8,119.15a.722.722,0,0,1,.319-.318,1.285,1.285,0,0,1,.438-.059h1.412v28.15h-1.791V122.929a10.66,10.66,0,0,1,.06-1.094l-11.082,19.676a.868.868,0,0,1-.8.517h-.319a.9.9,0,0,1-.8-.517l-11.38-19.7a10.81,10.81,0,0,1,.059,1.114v23.993h-1.77v-28.15h1.393a1.376,1.376,0,0,1,.448.059.707.707,0,0,1,.329.318l11.359,19.576A8.113,8.113,0,0,1,134.2,139.919Z" transform="translate(-120.152 -118.772)"/>
          </g>
        </g>
      </g>
      <g id="Group_4567" data-name="Group 4567" transform="translate(0 40.598)">
        <path id="Path_27238" data-name="Path 27238" d="M73.552,183.609v.228a.457.457,0,0,1-.091.266l-5.831,8.142H73.5v.552H66.748v-.241a.4.4,0,0,1,.078-.234l5.844-8.161H66.917v-.552Z" transform="translate(-66.748 -183.505)"/>
        <path id="Path_27239" data-name="Path 27239" d="M86.3,192.8h-.669v-9.188H86.3Z" transform="translate(-73.953 -183.505)"/>
        <path id="Path_27240" data-name="Path 27240" d="M100.3,190.511c.026-.07.053-.137.081-.205a1.771,1.771,0,0,1,.095-.191l3.609-6.382a.236.236,0,0,1,.1-.1.4.4,0,0,1,.143-.02h.461V192.8h-.584v-7.83a3.483,3.483,0,0,1,.02-.357l-3.617,6.421a.283.283,0,0,1-.26.169h-.1a.292.292,0,0,1-.26-.169L96.275,184.6a3.53,3.53,0,0,1,.02.364v7.83h-.578v-9.188h.455a.43.43,0,0,1,.146.02.226.226,0,0,1,.108.1l3.707,6.389A2.643,2.643,0,0,1,100.3,190.511Z" transform="translate(-77.804 -183.505)"/>
        <path id="Path_27241" data-name="Path 27241" d="M126.851,188.135a5.584,5.584,0,0,1-.318,1.932,4.282,4.282,0,0,1-.9,1.481,3.961,3.961,0,0,1-1.383.947,4.9,4.9,0,0,1-3.558,0,3.959,3.959,0,0,1-1.383-.947,4.327,4.327,0,0,1-.9-1.481,5.954,5.954,0,0,1,0-3.857,4.325,4.325,0,0,1,.9-1.48,4.011,4.011,0,0,1,1.383-.951,4.538,4.538,0,0,1,1.773-.338,4.616,4.616,0,0,1,1.785.334,3.949,3.949,0,0,1,1.383.952,4.308,4.308,0,0,1,.9,1.483A5.569,5.569,0,0,1,126.851,188.135Zm-.688,0a5.261,5.261,0,0,0-.266-1.727,3.726,3.726,0,0,0-.75-1.3,3.208,3.208,0,0,0-1.166-.815,3.92,3.92,0,0,0-1.513-.283,3.861,3.861,0,0,0-1.5.283,3.276,3.276,0,0,0-1.169.815,3.7,3.7,0,0,0-.759,1.3,5.679,5.679,0,0,0,0,3.458,3.71,3.71,0,0,0,.759,1.3,3.243,3.243,0,0,0,1.169.811,3.9,3.9,0,0,0,1.5.279,3.955,3.955,0,0,0,1.513-.279,3.177,3.177,0,0,0,1.166-.811,3.732,3.732,0,0,0,.75-1.3A5.252,5.252,0,0,0,126.163,188.135Z" transform="translate(-86.343 -183.441)"/>
        <path id="Path_27242" data-name="Path 27242" d="M151.809,192.3a7.189,7.189,0,0,0,.863-.048,4.685,4.685,0,0,0,.724-.147,4.466,4.466,0,0,0,.637-.237q.3-.139.607-.314v-2.474h-1.766a.169.169,0,0,1-.12-.046.136.136,0,0,1-.049-.1v-.363h2.539v3.266a6.007,6.007,0,0,1-.715.429,4.709,4.709,0,0,1-.792.315,6.027,6.027,0,0,1-.909.195,7.638,7.638,0,0,1-1.064.069,4.774,4.774,0,0,1-1.815-.335,4.02,4.02,0,0,1-1.409-.948,4.271,4.271,0,0,1-.913-1.484,5.917,5.917,0,0,1,0-3.866,4.212,4.212,0,0,1,.922-1.48,4.078,4.078,0,0,1,1.451-.949,5.21,5.21,0,0,1,1.912-.334,6.062,6.062,0,0,1,.971.072,4.521,4.521,0,0,1,.827.21,3.908,3.908,0,0,1,.714.344,4.863,4.863,0,0,1,.637.471l-.176.286a.182.182,0,0,1-.162.1.243.243,0,0,1-.111-.026,1.372,1.372,0,0,1-.283-.182,3.012,3.012,0,0,0-.5-.3,4.15,4.15,0,0,0-.788-.28,4.655,4.655,0,0,0-1.149-.123,4.369,4.369,0,0,0-1.617.286,3.43,3.43,0,0,0-1.231.818,3.625,3.625,0,0,0-.785,1.3,5.06,5.06,0,0,0-.276,1.72,5.13,5.13,0,0,0,.279,1.747,3.74,3.74,0,0,0,.782,1.308,3.37,3.37,0,0,0,1.208.821A4.1,4.1,0,0,0,151.809,192.3Z" transform="translate(-97.491 -183.441)"/>
        <path id="Path_27243" data-name="Path 27243" d="M169.1,188.641V192.8h-.663v-9.188h2.344a3.821,3.821,0,0,1,2.376.614,2.146,2.146,0,0,1,.786,1.8,2.466,2.466,0,0,1-.182.961,2.261,2.261,0,0,1-.523.763,2.783,2.783,0,0,1-.822.539,3.63,3.63,0,0,1-1.084.276,1.055,1.055,0,0,1,.279.26l3.162,3.974H174.2a.381.381,0,0,1-.179-.04.457.457,0,0,1-.146-.13l-2.942-3.726a.651.651,0,0,0-.237-.2.993.993,0,0,0-.393-.059Zm0-.493h1.6a3.77,3.77,0,0,0,1.094-.146,2.359,2.359,0,0,0,.819-.419,1.817,1.817,0,0,0,.51-.655,2.063,2.063,0,0,0,.175-.864,1.69,1.69,0,0,0-.642-1.454,3.122,3.122,0,0,0-1.871-.474H169.1Z" transform="translate(-105.557 -183.505)"/>
        <path id="Path_27244" data-name="Path 27244" d="M192.969,188.135a5.57,5.57,0,0,1-.318,1.932,4.272,4.272,0,0,1-.9,1.481,3.96,3.96,0,0,1-1.383.947,4.9,4.9,0,0,1-3.558,0,3.959,3.959,0,0,1-1.383-.947,4.327,4.327,0,0,1-.9-1.481,5.943,5.943,0,0,1,0-3.857,4.325,4.325,0,0,1,.9-1.48,4.011,4.011,0,0,1,1.383-.951,4.537,4.537,0,0,1,1.772-.338,4.617,4.617,0,0,1,1.786.334,3.948,3.948,0,0,1,1.383.952,4.3,4.3,0,0,1,.9,1.483A5.555,5.555,0,0,1,192.969,188.135Zm-.688,0a5.245,5.245,0,0,0-.267-1.727,3.724,3.724,0,0,0-.749-1.3,3.209,3.209,0,0,0-1.166-.815,3.921,3.921,0,0,0-1.513-.283,3.863,3.863,0,0,0-1.5.283,3.271,3.271,0,0,0-1.168.815,3.688,3.688,0,0,0-.76,1.3,5.666,5.666,0,0,0,0,3.458,3.693,3.693,0,0,0,.76,1.3,3.238,3.238,0,0,0,1.168.811,3.9,3.9,0,0,0,1.5.279,3.956,3.956,0,0,0,1.513-.279,3.177,3.177,0,0,0,1.166-.811,3.73,3.73,0,0,0,.749-1.3A5.236,5.236,0,0,0,192.281,188.135Z" transform="translate(-111.576 -183.441)"/>
        <path id="Path_27245" data-name="Path 27245" d="M209.415,192.322a2.906,2.906,0,0,0,1.185-.231,2.533,2.533,0,0,0,.886-.639,2.8,2.8,0,0,0,.555-.965,3.634,3.634,0,0,0,.192-1.2v-5.682h.662v5.682a4.1,4.1,0,0,1-.24,1.419,3.387,3.387,0,0,1-.691,1.149,3.185,3.185,0,0,1-1.1.769,3.9,3.9,0,0,1-2.9,0,3.184,3.184,0,0,1-1.1-.769,3.388,3.388,0,0,1-.691-1.149,4.112,4.112,0,0,1-.24-1.419v-5.682h.669v5.675a3.645,3.645,0,0,0,.191,1.2,2.827,2.827,0,0,0,.552.963,2.533,2.533,0,0,0,.882.643A2.875,2.875,0,0,0,209.415,192.322Z" transform="translate(-119.867 -183.505)"/>
        <path id="Path_27246" data-name="Path 27246" d="M226.651,189.1v3.7h-.663v-9.188h2.37a3.644,3.644,0,0,1,2.438.708,2.521,2.521,0,0,1,.821,2.02,2.7,2.7,0,0,1-.224,1.109,2.473,2.473,0,0,1-.646.874,3.011,3.011,0,0,1-1.026.571,4.226,4.226,0,0,1-1.363.2Zm0-.532h1.707a3.3,3.3,0,0,0,1.091-.168,2.4,2.4,0,0,0,.815-.467,2.022,2.022,0,0,0,.513-.7,2.168,2.168,0,0,0,.179-.886,2.049,2.049,0,0,0-.652-1.63,2.878,2.878,0,0,0-1.945-.571h-1.707Z" transform="translate(-127.52 -183.505)"/>
      </g>
    </g>
    <g id="Group_6479" data-name="Group 6479" transform="translate(636 875)">
      <g id="Group_6478" data-name="Group 6478" clip-path="url(#clip-path)">
        <path id="Path_36299" data-name="Path 36299" d="M939.909,292.661v12.18c-3.311,5.65-5.655,9.641-5.655,9.641h-7.417s6.383-10.63,13.072-21.821" transform="translate(-837.718 -264.521)"/>
        <path id="Path_36300" data-name="Path 36300" d="M591.621,9.68V21.859c-3.924,6.566-7.954,13.325-10.862,18.242-2.477,4.189-4.747,9.988-11.571,9.9-6.563-.088-9.027-5.764-11.671-10.184-3.209-5.365-6.8-11.517-9.987-16.843-1.72-2.87-3.745-5.583-4.945-8.469A16.2,16.2,0,0,1,541.5,9.554V8.507c.616-4.159,2.976-7.4,7.318-8.184a66.973,66.973,0,0,1,9.1-.286h27.494v5.9s-30.26-.05-30.263,0c-3.13,0-5.334-.119-6.428,1.809-1.677,2.954.77,5.818,1.978,7.993,3.836,6.919,7.778,13.774,11.868,20.937,1.526,2.673,3.227,6.565,6.626,6.565,2.24,0,4.169-2.214,5.142-3.9,4.636-8.036,12.135-20.86,17.29-29.66" transform="translate(-489.43 0)"/>
        <path id="Path_36301" data-name="Path 36301" d="M63.2,41.494V40.446A16.211,16.211,0,0,0,62.109,35.5c-1.2-2.887-3.227-5.6-4.945-8.47-3.191-5.325-6.78-11.479-9.99-16.844C44.532,5.766,42.068.09,35.505,0c-6.824-.091-9.094,5.707-11.571,9.9C16.07,23.2,0,49.962,0,49.962H7.418S22.75,23.856,30.362,10.66c.973-1.687,2.9-3.9,5.143-3.9,3.4,0,5.1,3.892,6.626,6.567C46.222,20.487,50.162,27.342,54,34.261c1.207,2.176,3.656,5.039,1.978,7.994-1.094,1.928-3.3,1.81-6.429,1.81,0,.048-30.262,0-30.262,0v5.9H46.779a67.26,67.26,0,0,0,9.1-.284c4.342-.785,6.7-4.026,7.319-8.184" transform="translate(0 -0.001)"/>
      </g>
    </g>
  </g>
</svg>
